STARTFONT 2.1
FONT -ibm-courier-medium-r-normal--12-120-100-100-m-83-iso8859-2
SIZE 12 100 100
FONTBOUNDINGBOX 14 18 -1 -2
COMMENT $Header: courR12.bdf,v 1.1 96/01/22 23:46:57 peterlin Exp $
COMMENT 
COMMENT Copyright International Business Machines,Corp. 1991
COMMENT IBM Courier is a Trademark of the IBM Corporation.
COMMENT 
COMMENT Automatic rendering from Adobe Type 1 outline:
COMMENT Primoz Peterlin <primoz.peterlin@biofiz.mf.uni-lj.si>
COMMENT cour.pfa rendered at 14.000000 points
COMMENT Checksum eb69a063
STARTPROPERTIES 3
FONT_ASCENT 15
FONT_DESCENT 2
DEFAULT_CHAR 32
ENDPROPERTIES
CHARS 191
STARTCHAR space
ENCODING 32
SWIDTH 614 0
DWIDTH 12 0
BBX 0 0 0 1
BITMAP
ENDCHAR
STARTCHAR exclam
ENCODING 33
SWIDTH 614 0
DWIDTH 12 0
BBX 3 11 4 1
BITMAP
c0
c0
40
40
40
40
40
00
00
60
60
ENDCHAR
STARTCHAR quotedbl
ENCODING 34
SWIDTH 614 0
DWIDTH 12 0
BBX 6 5 3 7
BITMAP
cc
cc
cc
cc
cc
ENDCHAR
STARTCHAR numbersign
ENCODING 35
SWIDTH 614 0
DWIDTH 12 0
BBX 9 14 1 0
BITMAP
1200
1200
1200
1200
1200
ff80
2200
2200
2200
ff80
2200
2200
2200
2200
ENDCHAR
STARTCHAR dollar
ENCODING 36
SWIDTH 614 0
DWIDTH 12 0
BBX 7 15 2 -2
BITMAP
10
3e
5e
92
92
d0
38
14
92
92
d6
fc
10
10
10
ENDCHAR
STARTCHAR percent
ENCODING 37
SWIDTH 614 0
DWIDTH 12 0
BBX 9 12 1 1
BITMAP
7000
c800
8800
8800
7100
0e00
7800
6700
0880
0880
0880
0700
ENDCHAR
STARTCHAR ampersand
ENCODING 38
SWIDTH 614 0
DWIDTH 12 0
BBX 8 10 2 1
BITMAP
3e
40
40
20
33
52
8a
8c
cc
73
ENDCHAR
STARTCHAR quoteright
ENCODING 39
SWIDTH 614 0
DWIDTH 12 0
BBX 3 5 4 7
BITMAP
60
60
40
c0
80
ENDCHAR
STARTCHAR parenleft
ENCODING 40
SWIDTH 614 0
DWIDTH 12 0
BBX 3 14 6 -1
BITMAP
40
40
40
80
80
80
80
80
80
80
80
40
40
20
ENDCHAR
STARTCHAR parenright
ENCODING 41
SWIDTH 614 0
DWIDTH 12 0
BBX 3 14 3 -1
BITMAP
80
80
40
40
20
20
20
20
20
20
40
40
80
80
ENDCHAR
STARTCHAR asterisk
ENCODING 42
SWIDTH 614 0
DWIDTH 12 0
BBX 7 7 2 5
BITMAP
10
10
d6
3c
38
6c
24
ENDCHAR
STARTCHAR plus
ENCODING 43
SWIDTH 614 0
DWIDTH 12 0
BBX 9 9 1 2
BITMAP
0800
0800
0800
0800
ff80
0800
0800
0800
0800
ENDCHAR
STARTCHAR comma
ENCODING 44
SWIDTH 614 0
DWIDTH 12 0
BBX 3 5 4 -1
BITMAP
60
60
40
c0
c0
ENDCHAR
STARTCHAR minus
ENCODING 45
SWIDTH 614 0
DWIDTH 12 0
BBX 9 1 1 6
BITMAP
ff80
ENDCHAR
STARTCHAR period
ENCODING 46
SWIDTH 614 0
DWIDTH 12 0
BBX 3 3 4 1
BITMAP
e0
e0
40
ENDCHAR
STARTCHAR slash
ENCODING 47
SWIDTH 614 0
DWIDTH 12 0
BBX 8 16 2 -2
BITMAP
01
03
02
02
04
04
08
08
10
10
20
20
40
40
c0
80
ENDCHAR
STARTCHAR zero
ENCODING 48
SWIDTH 614 0
DWIDTH 12 0
BBX 7 12 2 1
BITMAP
38
44
42
82
82
82
82
82
82
c2
44
38
ENDCHAR
STARTCHAR one
ENCODING 49
SWIDTH 614 0
DWIDTH 12 0
BBX 8 12 2 1
BITMAP
30
70
90
10
10
10
10
10
10
10
10
ff
ENDCHAR
STARTCHAR two
ENCODING 50
SWIDTH 614 0
DWIDTH 12 0
BBX 7 12 2 1
BITMAP
38
c4
82
02
02
06
0c
08
10
22
42
fe
ENDCHAR
STARTCHAR three
ENCODING 51
SWIDTH 614 0
DWIDTH 12 0
BBX 7 12 2 1
BITMAP
78
8c
04
04
04
38
0c
02
02
02
84
f8
ENDCHAR
STARTCHAR four
ENCODING 52
SWIDTH 614 0
DWIDTH 12 0
BBX 8 12 1 1
BITMAP
04
0c
0c
14
24
24
44
84
ff
04
04
1f
ENDCHAR
STARTCHAR five
ENCODING 53
SWIDTH 614 0
DWIDTH 12 0
BBX 7 12 2 1
BITMAP
fc
80
80
80
80
f8
84
02
02
02
04
78
ENDCHAR
STARTCHAR six
ENCODING 54
SWIDTH 614 0
DWIDTH 12 0
BBX 7 12 2 1
BITMAP
1e
30
40
40
80
b8
c4
82
82
82
44
38
ENDCHAR
STARTCHAR seven
ENCODING 55
SWIDTH 614 0
DWIDTH 12 0
BBX 7 12 2 1
BITMAP
fe
82
86
04
04
0c
08
08
18
10
10
10
ENDCHAR
STARTCHAR eight
ENCODING 56
SWIDTH 614 0
DWIDTH 12 0
BBX 7 12 2 1
BITMAP
38
44
82
82
82
44
3c
46
82
82
46
3c
ENDCHAR
STARTCHAR nine
ENCODING 57
SWIDTH 614 0
DWIDTH 12 0
BBX 7 12 2 1
BITMAP
38
4c
84
82
82
c6
7a
02
04
04
08
f0
ENDCHAR
STARTCHAR colon
ENCODING 58
SWIDTH 614 0
DWIDTH 12 0
BBX 3 8 4 1
BITMAP
e0
e0
40
00
00
e0
e0
40
ENDCHAR
STARTCHAR semicolon
ENCODING 59
SWIDTH 614 0
DWIDTH 12 0
BBX 4 10 3 -1
BITMAP
70
70
20
00
00
30
60
60
40
40
ENDCHAR
STARTCHAR less
ENCODING 60
SWIDTH 614 0
DWIDTH 12 0
BBX 9 8 1 3
BITMAP
0180
0600
1800
6000
6000
1800
0700
0180
ENDCHAR
STARTCHAR equal
ENCODING 61
SWIDTH 614 0
DWIDTH 12 0
BBX 9 4 1 5
BITMAP
ff80
0000
0000
ff80
ENDCHAR
STARTCHAR greater
ENCODING 62
SWIDTH 614 0
DWIDTH 12 0
BBX 9 8 1 3
BITMAP
8000
7000
0c00
0300
0300
1c00
f000
c000
ENDCHAR
STARTCHAR question
ENCODING 63
SWIDTH 614 0
DWIDTH 12 0
BBX 7 11 2 1
BITMAP
7c
86
82
02
02
0c
10
10
00
18
18
ENDCHAR
STARTCHAR at
ENCODING 64
SWIDTH 614 0
DWIDTH 12 0
BBX 10 10 1 1
BITMAP
3e00
6180
cec0
9640
a640
a440
a480
df00
6080
3f00
ENDCHAR
STARTCHAR A
ENCODING 65
SWIDTH 614 0
DWIDTH 12 0
BBX 11 11 0 1
BITMAP
3c00
0e00
0a00
0b00
1100
1100
3180
3f80
2080
4040
f1e0
ENDCHAR
STARTCHAR B
ENCODING 66
SWIDTH 614 0
DWIDTH 12 0
BBX 9 11 1 1
BITMAP
ff00
4180
4080
4080
4100
7e00
4180
4080
4080
4180
ff00
ENDCHAR
STARTCHAR C
ENCODING 67
SWIDTH 614 0
DWIDTH 12 0
BBX 10 11 1 1
BITMAP
1e80
2180
4080
8080
8000
8000
8000
8000
4040
20c0
1f00
ENDCHAR
STARTCHAR D
ENCODING 68
SWIDTH 614 0
DWIDTH 12 0
BBX 9 11 1 1
BITMAP
fe00
4100
4080
4080
4080
4080
4080
4080
4080
4100
fe00
ENDCHAR
STARTCHAR E
ENCODING 69
SWIDTH 614 0
DWIDTH 12 0
BBX 9 11 1 1
BITMAP
ff80
2080
2080
2080
2200
3e00
2200
2000
2080
2080
ff80
ENDCHAR
STARTCHAR F
ENCODING 70
SWIDTH 614 0
DWIDTH 12 0
BBX 9 11 1 1
BITMAP
ff80
2080
2080
2080
2200
3e00
2200
2000
2000
2000
f800
ENDCHAR
STARTCHAR G
ENCODING 71
SWIDTH 614 0
DWIDTH 12 0
BBX 10 11 1 1
BITMAP
1e80
2180
4080
8080
8000
8000
87c0
8080
4080
6080
1f00
ENDCHAR
STARTCHAR H
ENCODING 72
SWIDTH 614 0
DWIDTH 12 0
BBX 10 11 1 1
BITMAP
f3c0
4100
4100
4100
4100
7f00
4100
4100
4100
4100
f3c0
ENDCHAR
STARTCHAR I
ENCODING 73
SWIDTH 614 0
DWIDTH 12 0
BBX 7 11 2 1
BITMAP
fe
10
10
10
10
10
10
10
10
10
fe
ENDCHAR
STARTCHAR J
ENCODING 74
SWIDTH 614 0
DWIDTH 12 0
BBX 10 11 1 1
BITMAP
1fc0
0100
0100
0100
0100
0100
8100
8100
8100
c300
7e00
ENDCHAR
STARTCHAR K
ENCODING 75
SWIDTH 614 0
DWIDTH 12 0
BBX 10 11 1 1
BITMAP
f3c0
2180
2300
2400
2800
3800
2600
2200
2100
2180
f0c0
ENDCHAR
STARTCHAR L
ENCODING 76
SWIDTH 614 0
DWIDTH 12 0
BBX 10 11 1 1
BITMAP
f800
2000
2000
2000
2000
2000
2080
2080
2080
2080
ff80
ENDCHAR
STARTCHAR M
ENCODING 77
SWIDTH 614 0
DWIDTH 12 0
BBX 11 11 0 1
BITMAP
e0e0
50c0
5140
4940
4940
4a40
4a40
4440
4040
4040
f1e0
ENDCHAR
STARTCHAR N
ENCODING 78
SWIDTH 614 0
DWIDTH 12 0
BBX 10 11 1 1
BITMAP
e3c0
7080
5080
5880
4880
4480
4480
4280
4280
4180
f180
ENDCHAR
STARTCHAR O
ENCODING 79
SWIDTH 614 0
DWIDTH 12 0
BBX 10 11 1 1
BITMAP
1e00
6100
4080
80c0
8040
8040
8040
8040
4080
6100
1e00
ENDCHAR
STARTCHAR P
ENCODING 80
SWIDTH 614 0
DWIDTH 12 0
BBX 9 11 1 1
BITMAP
ff00
2100
2080
2080
2080
2180
3f00
2000
2000
2000
fc00
ENDCHAR
STARTCHAR Q
ENCODING 81
SWIDTH 614 0
DWIDTH 12 0
BBX 10 13 1 -1
BITMAP
1e00
6100
4080
80c0
8040
8040
8040
8040
4080
6100
3e00
1000
3f80
ENDCHAR
STARTCHAR R
ENCODING 82
SWIDTH 614 0
DWIDTH 12 0
BBX 10 11 1 1
BITMAP
fe00
4100
4100
4100
4300
7e00
4400
4200
4200
4100
f1c0
ENDCHAR
STARTCHAR S
ENCODING 83
SWIDTH 614 0
DWIDTH 12 0
BBX 8 11 2 1
BITMAP
3d
43
83
81
c0
7c
02
01
81
c3
bc
ENDCHAR
STARTCHAR T
ENCODING 84
SWIDTH 614 0
DWIDTH 12 0
BBX 9 11 1 1
BITMAP
ff80
8880
8880
8880
8880
0800
0800
0800
0800
0800
3e00
ENDCHAR
STARTCHAR U
ENCODING 85
SWIDTH 614 0
DWIDTH 12 0
BBX 11 11 0 1
BITMAP
f9e0
2040
2040
2040
2040
2040
2040
2040
2040
30c0
1f00
ENDCHAR
STARTCHAR V
ENCODING 86
SWIDTH 614 0
DWIDTH 12 0
BBX 11 11 0 1
BITMAP
f1e0
2040
2080
2080
1080
1100
1100
0900
0a00
0600
0400
ENDCHAR
STARTCHAR W
ENCODING 87
SWIDTH 614 0
DWIDTH 12 0
BBX 12 11 0 1
BITMAP
f0f0
4020
4420
4420
6620
6a20
2940
2940
3140
30c0
3080
ENDCHAR
STARTCHAR X
ENCODING 88
SWIDTH 614 0
DWIDTH 12 0
BBX 10 11 1 1
BITMAP
f380
6100
2200
1200
0c00
0800
1400
1200
2100
4180
f3c0
ENDCHAR
STARTCHAR Y
ENCODING 89
SWIDTH 614 0
DWIDTH 12 0
BBX 11 11 0 1
BITMAP
f1e0
2080
3080
1100
1b00
0a00
0400
0400
0400
0400
1f00
ENDCHAR
STARTCHAR Z
ENCODING 90
SWIDTH 614 0
DWIDTH 12 0
BBX 8 11 2 1
BITMAP
ff
82
84
8c
08
10
20
61
41
81
ff
ENDCHAR
STARTCHAR bracketleft
ENCODING 91
SWIDTH 614 0
DWIDTH 12 0
BBX 3 14 6 -1
BITMAP
e0
80
80
80
80
80
80
80
80
80
80
80
80
e0
ENDCHAR
STARTCHAR backslash
ENCODING 92
SWIDTH 614 0
DWIDTH 12 0
BBX 8 16 2 -2
BITMAP
80
40
40
40
20
20
10
10
08
08
04
04
02
02
02
01
ENDCHAR
STARTCHAR bracketright
ENCODING 93
SWIDTH 614 0
DWIDTH 12 0
BBX 4 14 2 -1
BITMAP
f0
10
10
10
10
10
10
10
10
10
10
10
10
f0
ENDCHAR
STARTCHAR asciicircum
ENCODING 94
SWIDTH 614 0
DWIDTH 12 0
BBX 9 8 1 4
BITMAP
1c00
1400
3600
2200
6200
4300
c100
8180
ENDCHAR
STARTCHAR underscore
ENCODING 95
SWIDTH 614 0
DWIDTH 12 0
BBX 13 1 -1 -1
BITMAP
fff8
ENDCHAR
STARTCHAR quoteleft
ENCODING 96
SWIDTH 614 0
DWIDTH 12 0
BBX 3 5 4 7
BITMAP
20
60
40
c0
c0
ENDCHAR
STARTCHAR a
ENCODING 97
SWIDTH 614 0
DWIDTH 12 0
BBX 9 8 1 1
BITMAP
3e00
0100
0100
3f00
c100
8100
c300
7d80
ENDCHAR
STARTCHAR b
ENCODING 98
SWIDTH 614 0
DWIDTH 12 0
BBX 10 12 0 1
BITMAP
e000
2000
2000
2000
2f00
3080
2040
2040
2040
2040
3080
ef00
ENDCHAR
STARTCHAR c
ENCODING 99
SWIDTH 614 0
DWIDTH 12 0
BBX 9 8 1 1
BITMAP
3f80
6180
8080
8000
8000
c000
6180
3e00
ENDCHAR
STARTCHAR d
ENCODING 100
SWIDTH 614 0
DWIDTH 12 0
BBX 10 12 1 1
BITMAP
0300
0100
0100
0100
3d00
4300
8100
8100
8100
8100
4300
3dc0
ENDCHAR
STARTCHAR e
ENCODING 101
SWIDTH 614 0
DWIDTH 12 0
BBX 10 8 1 1
BITMAP
3e00
4180
8080
ff80
8000
c000
6080
1f00
ENDCHAR
STARTCHAR f
ENCODING 102
SWIDTH 614 0
DWIDTH 12 0
BBX 8 12 2 1
BITMAP
1e
20
20
20
fe
20
20
20
20
20
20
fe
ENDCHAR
STARTCHAR g
ENCODING 103
SWIDTH 614 0
DWIDTH 12 0
BBX 10 11 1 -2
BITMAP
3dc0
4300
8100
8100
8100
c300
4300
3d00
0100
0300
3e00
ENDCHAR
STARTCHAR h
ENCODING 104
SWIDTH 614 0
DWIDTH 12 0
BBX 11 12 0 1
BITMAP
e000
2000
2000
2000
2f00
3080
2080
2080
2080
2080
2080
79e0
ENDCHAR
STARTCHAR i
ENCODING 105
SWIDTH 614 0
DWIDTH 12 0
BBX 7 12 2 1
BITMAP
10
10
00
00
f0
10
10
10
10
10
10
fe
ENDCHAR
STARTCHAR j
ENCODING 106
SWIDTH 614 0
DWIDTH 12 0
BBX 6 15 1 -2
BITMAP
04
04
00
00
7c
04
04
04
04
04
04
04
04
0c
f8
ENDCHAR
STARTCHAR k
ENCODING 107
SWIDTH 614 0
DWIDTH 12 0
BBX 10 12 1 1
BITMAP
e000
2000
2000
2000
2780
2600
2800
3800
2c00
2200
2100
e3c0
ENDCHAR
STARTCHAR l
ENCODING 108
SWIDTH 614 0
DWIDTH 12 0
BBX 7 12 2 1
BITMAP
f0
90
10
10
10
10
10
10
10
10
10
fe
ENDCHAR
STARTCHAR m
ENCODING 109
SWIDTH 614 0
DWIDTH 12 0
BBX 11 8 0 1
BITMAP
fb80
4440
4440
4440
4440
4440
4440
e660
ENDCHAR
STARTCHAR n
ENCODING 110
SWIDTH 614 0
DWIDTH 12 0
BBX 10 8 1 1
BITMAP
de00
6100
4100
4100
4100
4100
4100
f3c0
ENDCHAR
STARTCHAR o
ENCODING 111
SWIDTH 614 0
DWIDTH 12 0
BBX 9 8 1 1
BITMAP
3e00
4100
8080
8080
8080
c080
6100
3e00
ENDCHAR
STARTCHAR p
ENCODING 112
SWIDTH 614 0
DWIDTH 12 0
BBX 10 11 0 -2
BITMAP
ef00
3080
2040
2040
2040
2040
3080
2f00
2000
2000
fc00
ENDCHAR
STARTCHAR q
ENCODING 113
SWIDTH 614 0
DWIDTH 12 0
BBX 10 11 1 -2
BITMAP
3ec0
4380
8080
8080
8080
c180
6280
3c80
0080
0080
07c0
ENDCHAR
STARTCHAR r
ENCODING 114
SWIDTH 614 0
DWIDTH 12 0
BBX 10 8 1 1
BITMAP
73c0
1c00
1000
1000
1000
1000
1000
fe00
ENDCHAR
STARTCHAR s
ENCODING 115
SWIDTH 614 0
DWIDTH 12 0
BBX 8 8 2 1
BITMAP
7e
82
82
78
87
81
c1
be
ENDCHAR
STARTCHAR t
ENCODING 116
SWIDTH 614 0
DWIDTH 12 0
BBX 8 11 2 1
BITMAP
40
40
40
fe
40
40
40
40
40
61
3e
ENDCHAR
STARTCHAR u
ENCODING 117
SWIDTH 614 0
DWIDTH 12 0
BBX 10 8 1 1
BITMAP
c700
4100
4100
4100
4100
4100
6300
3dc0
ENDCHAR
STARTCHAR v
ENCODING 118
SWIDTH 614 0
DWIDTH 12 0
BBX 11 8 0 1
BITMAP
f1e0
2080
2080
1100
1100
0a00
0a00
0400
ENDCHAR
STARTCHAR w
ENCODING 119
SWIDTH 614 0
DWIDTH 12 0
BBX 11 8 0 1
BITMAP
e0e0
4440
4440
2640
2a40
2980
2980
1100
ENDCHAR
STARTCHAR x
ENCODING 120
SWIDTH 614 0
DWIDTH 12 0
BBX 11 8 0 1
BITMAP
79c0
1100
0a00
0400
0a00
1100
2080
f1e0
ENDCHAR
STARTCHAR y
ENCODING 121
SWIDTH 614 0
DWIDTH 12 0
BBX 11 11 0 -2
BITMAP
f0e0
6040
3080
1080
1900
0a00
0600
0400
0c00
0800
fc00
ENDCHAR
STARTCHAR z
ENCODING 122
SWIDTH 614 0
DWIDTH 12 0
BBX 7 8 2 1
BITMAP
fe
84
04
08
10
62
c2
fe
ENDCHAR
STARTCHAR braceleft
ENCODING 123
SWIDTH 614 0
DWIDTH 12 0
BBX 5 14 4 -1
BITMAP
18
20
20
20
20
20
c0
20
20
20
20
20
20
18
ENDCHAR
STARTCHAR bar
ENCODING 124
SWIDTH 614 0
DWIDTH 12 0
BBX 1 16 5 -2
BITMAP
80
80
80
80
80
80
80
80
80
80
80
80
80
80
80
80
ENDCHAR
STARTCHAR braceright
ENCODING 125
SWIDTH 614 0
DWIDTH 12 0
BBX 4 14 3 -1
BITMAP
c0
20
20
20
40
40
30
60
40
60
20
20
60
c0
ENDCHAR
STARTCHAR asciitilde
ENCODING 126
SWIDTH 614 0
DWIDTH 12 0
BBX 8 3 2 5
BITMAP
61
de
84
ENDCHAR
STARTCHAR space
ENCODING 160
SWIDTH 614 0
DWIDTH 12 0
BBX 0 0 0 1
BITMAP
ENDCHAR
STARTCHAR Aogonek
ENCODING 161
SWIDTH 614 0
DWIDTH 12 0
BBX 11 13 0 -1
BITMAP
3c00
0600
0a00
0b00
1100
1100
1080
3f80
2080
4040
f1e0
00c0
00c0
ENDCHAR
STARTCHAR breve
ENCODING 162
SWIDTH 614 0
DWIDTH 12 0
BBX 6 2 3 11
BITMAP
84
78
ENDCHAR
STARTCHAR Lslash
ENCODING 163
SWIDTH 614 0
DWIDTH 12 0
BBX 10 11 1 1
BITMAP
f800
2000
2000
2600
2800
f000
e080
2080
2080
2080
ff80
ENDCHAR
STARTCHAR currency
ENCODING 164
SWIDTH 614 0
DWIDTH 12 0
BBX 9 9 1 2
BITMAP
4100
5d00
2200
4100
4100
4100
2200
5d00
4080
ENDCHAR
STARTCHAR Lcaron
ENCODING 165
SWIDTH 614 0
DWIDTH 12 0
BBX 10 12 1 1
BITMAP
0300
fa00
2000
2000
2000
2000
2000
2080
2080
2080
2080
ff80
ENDCHAR
STARTCHAR Sacute
ENCODING 166
SWIDTH 614 0
DWIDTH 12 0
BBX 8 14 2 1
BITMAP
18
10
00
3d
43
83
81
c0
7c
02
01
81
c3
bc
ENDCHAR
STARTCHAR section
ENCODING 167
SWIDTH 614 0
DWIDTH 12 0
BBX 7 13 2 -1
BITMAP
3e
42
42
60
d0
8c
46
22
1a
0c
84
84
f8
ENDCHAR
STARTCHAR dieresis
ENCODING 168
SWIDTH 614 0
DWIDTH 12 0
BBX 3 2 4 11
BITMAP
a0
a0
ENDCHAR
STARTCHAR Scaron
ENCODING 169
SWIDTH 614 0
DWIDTH 12 0
BBX 8 15 2 1
BITMAP
44
6c
38
00
3d
43
83
81
c0
7c
02
01
81
c3
bc
ENDCHAR
STARTCHAR Scedilla
ENCODING 170
SWIDTH 614 0
DWIDTH 12 0
BBX 8 14 2 -2
BITMAP
3d
47
83
81
c0
7c
02
01
81
c2
bc
1c
1c
38
ENDCHAR
STARTCHAR Tcaron
ENCODING 171
SWIDTH 614 0
DWIDTH 12 0
BBX 9 15 1 1
BITMAP
2200
3600
1c00
0000
ff80
8880
8880
8880
8880
0800
0800
0800
0800
0800
3e00
ENDCHAR
STARTCHAR Zacute
ENCODING 172
SWIDTH 614 0
DWIDTH 12 0
BBX 8 14 2 1
BITMAP
18
10
00
ff
82
84
8c
08
10
20
61
41
81
ff
ENDCHAR
STARTCHAR hyphen
ENCODING 173
SWIDTH 614 0
DWIDTH 12 0
BBX 4 1 4 6
BITMAP
f0
ENDCHAR
STARTCHAR Zcaron
ENCODING 174
SWIDTH 614 0
DWIDTH 12 0
BBX 8 15 2 1
BITMAP
44
6c
38
00
ff
82
84
8c
08
10
20
61
41
81
ff
ENDCHAR
STARTCHAR Zdotaccent
ENCODING 175
SWIDTH 614 0
DWIDTH 12 0
BBX 8 14 2 1
BITMAP
10
10
00
ff
82
84
8c
08
10
20
61
41
81
ff
ENDCHAR
STARTCHAR degree
ENCODING 176
SWIDTH 614 0
DWIDTH 12 0
BBX 6 6 3 7
BITMAP
70
c8
84
84
c8
70
ENDCHAR
STARTCHAR aogonek
ENCODING 177
SWIDTH 614 0
DWIDTH 12 0
BBX 9 10 1 -1
BITMAP
3e00
0100
0100
3f00
c100
8100
c300
7d80
0100
0100
ENDCHAR
STARTCHAR ogonek
ENCODING 178
SWIDTH 614 0
DWIDTH 12 0
BBX 3 2 5 -1
BITMAP
80
c0
ENDCHAR
STARTCHAR lslash
ENCODING 179
SWIDTH 614 0
DWIDTH 12 0
BBX 7 12 2 1
BITMAP
f0
90
10
10
12
1c
f0
d0
10
10
10
fe
ENDCHAR
STARTCHAR acute
ENCODING 180
SWIDTH 614 0
DWIDTH 12 0
BBX 4 2 4 11
BITMAP
60
40
ENDCHAR
STARTCHAR lcaron
ENCODING 181
SWIDTH 614 0
DWIDTH 12 0
BBX 9 12 2 1
BITMAP
f300
9200
1000
1000
1000
1000
1000
1000
1000
1000
1000
fe00
ENDCHAR
STARTCHAR sacute
ENCODING 182
SWIDTH 614 0
DWIDTH 12 0
BBX 8 12 2 1
BITMAP
18
10
00
00
7e
82
82
78
87
81
c1
be
ENDCHAR
STARTCHAR caron
ENCODING 183
SWIDTH 614 0
DWIDTH 12 0
BBX 5 2 3 11
BITMAP
d8
70
ENDCHAR
STARTCHAR cedilla
ENCODING 184
SWIDTH 614 0
DWIDTH 12 0
BBX 4 4 4 -2
BITMAP
40
60
10
e0
ENDCHAR
STARTCHAR scaron
ENCODING 185
SWIDTH 614 0
DWIDTH 12 0
BBX 8 12 2 1
BITMAP
6c
38
00
00
7e
82
82
78
87
81
c1
be
ENDCHAR
STARTCHAR scedilla
ENCODING 186
SWIDTH 614 0
DWIDTH 12 0
BBX 8 11 2 -2
BITMAP
7e
82
82
78
87
81
c1
be
1c
1c
38
ENDCHAR
STARTCHAR tcaron
ENCODING 187
SWIDTH 614 0
DWIDTH 12 0
BBX 8 12 2 1
BITMAP
0c
48
40
40
fe
40
40
40
40
40
61
3e
ENDCHAR
STARTCHAR zacute
ENCODING 188
SWIDTH 614 0
DWIDTH 12 0
BBX 7 12 2 1
BITMAP
18
10
00
00
fe
84
04
08
10
62
c2
fe
ENDCHAR
STARTCHAR hungarumlaut
ENCODING 189
SWIDTH 614 0
DWIDTH 12 0
BBX 6 2 3 11
BITMAP
68
50
ENDCHAR
STARTCHAR zcaron
ENCODING 190
SWIDTH 614 0
DWIDTH 12 0
BBX 7 12 2 1
BITMAP
6c
38
00
00
fe
84
04
08
10
62
c2
fe
ENDCHAR
STARTCHAR zdotaccent
ENCODING 191
SWIDTH 614 0
DWIDTH 12 0
BBX 7 12 2 1
BITMAP
10
10
00
00
fe
84
04
08
10
62
c2
fe
ENDCHAR
STARTCHAR Racute
ENCODING 192
SWIDTH 614 0
DWIDTH 12 0
BBX 10 14 1 1
BITMAP
0c00
0800
0000
fe00
4100
4100
4100
4300
7e00
4400
4200
4200
4100
f1c0
ENDCHAR
STARTCHAR Aacute
ENCODING 193
SWIDTH 614 0
DWIDTH 12 0
BBX 11 14 0 1
BITMAP
0600
0400
0000
3c00
0e00
0a00
0b00
1100
1100
3180
3f80
2080
4040
f1e0
ENDCHAR
STARTCHAR Acircumflex
ENCODING 194
SWIDTH 614 0
DWIDTH 12 0
BBX 11 14 0 1
BITMAP
0e00
1300
0000
3c00
0e00
0a00
0b00
1100
1100
3180
3f80
2080
4040
f1e0
ENDCHAR
STARTCHAR Abreve
ENCODING 195
SWIDTH 614 0
DWIDTH 12 0
BBX 11 15 0 1
BITMAP
1080
1980
0f00
0000
3c00
0e00
0a00
0b00
1100
1100
3180
3f80
2080
4040
f1e0
ENDCHAR
STARTCHAR Adieresis
ENCODING 196
SWIDTH 614 0
DWIDTH 12 0
BBX 11 14 0 1
BITMAP
0a00
0a00
0000
3c00
0e00
0a00
0b00
1100
1100
3180
3f80
2080
4040
f1e0
ENDCHAR
STARTCHAR Lacute
ENCODING 197
SWIDTH 614 0
DWIDTH 12 0
BBX 10 14 1 1
BITMAP
3000
2000
0000
f800
2000
2000
2000
2000
2000
2080
2080
2080
2080
ff80
ENDCHAR
STARTCHAR Cacute
ENCODING 198
SWIDTH 614 0
DWIDTH 12 0
BBX 10 14 1 1
BITMAP
0600
0400
0000
1e80
2180
4080
8080
8000
8000
8000
8000
4040
20c0
1f00
ENDCHAR
STARTCHAR Ccedilla
ENCODING 199
SWIDTH 614 0
DWIDTH 12 0
BBX 10 14 1 -2
BITMAP
1e80
2180
4080
8080
8000
8000
8000
8000
4040
20c0
1f00
0600
0200
1e00
ENDCHAR
STARTCHAR Ccaron
ENCODING 200
SWIDTH 614 0
DWIDTH 12 0
BBX 10 15 1 1
BITMAP
1100
1b00
0e00
0000
1e80
2180
4080
8080
8000
8000
8000
8000
4040
20c0
1f00
ENDCHAR
STARTCHAR Eacute
ENCODING 201
SWIDTH 614 0
DWIDTH 12 0
BBX 9 14 1 1
BITMAP
0c00
0800
0000
ff80
2080
2080
2080
2200
3e00
2200
2000
2080
2080
ff80
ENDCHAR
STARTCHAR Eogonek
ENCODING 202
SWIDTH 614 0
DWIDTH 12 0
BBX 9 13 1 -1
BITMAP
ff80
2080
2080
2080
2200
3e00
2200
2000
2080
2080
ff80
0300
0300
ENDCHAR
STARTCHAR Edieresis
ENCODING 203
SWIDTH 614 0
DWIDTH 12 0
BBX 9 14 1 1
BITMAP
1400
1400
0000
ff80
2080
2080
2080
2200
3e00
2200
2000
2080
2080
ff80
ENDCHAR
STARTCHAR Ecaron
ENCODING 204
SWIDTH 614 0
DWIDTH 12 0
BBX 9 15 1 1
BITMAP
2200
3600
1c00
0000
ff80
2080
2080
2080
2200
3e00
2200
2000
2080
2080
ff80
ENDCHAR
STARTCHAR Iacute
ENCODING 205
SWIDTH 614 0
DWIDTH 12 0
BBX 7 14 2 1
BITMAP
18
10
00
fe
10
10
10
10
10
10
10
10
10
fe
ENDCHAR
STARTCHAR Icircumflex
ENCODING 206
SWIDTH 614 0
DWIDTH 12 0
BBX 7 14 2 1
BITMAP
38
4c
00
fe
10
10
10
10
10
10
10
10
10
fe
ENDCHAR
STARTCHAR Dcaron
ENCODING 207
SWIDTH 614 0
DWIDTH 12 0
BBX 9 15 1 1
BITMAP
2200
3600
1c00
0000
fe00
4100
4080
4080
4080
4080
4080
4080
4080
4100
fe00
ENDCHAR
STARTCHAR Eth
ENCODING 208
SWIDTH 614 0
DWIDTH 12 0
BBX 9 11 1 1
BITMAP
fe00
4100
4080
4080
4080
f880
4080
4080
4080
4100
fe00
ENDCHAR
STARTCHAR Nacute
ENCODING 209
SWIDTH 614 0
DWIDTH 12 0
BBX 10 14 1 1
BITMAP
0c00
0800
0000
e3c0
7080
5080
5880
4880
4480
4480
4280
4280
4180
f180
ENDCHAR
STARTCHAR Ncaron
ENCODING 210
SWIDTH 614 0
DWIDTH 12 0
BBX 10 15 1 1
BITMAP
2200
3600
1c00
0000
e3c0
7080
5080
5880
4880
4480
4480
4280
4280
4180
f180
ENDCHAR
STARTCHAR Oacute
ENCODING 211
SWIDTH 614 0
DWIDTH 12 0
BBX 10 14 1 1
BITMAP
0c00
0800
0000
1e00
6100
4080
80c0
8040
8040
8040
8040
4080
6100
1e00
ENDCHAR
STARTCHAR Ocircumflex
ENCODING 212
SWIDTH 614 0
DWIDTH 12 0
BBX 10 14 1 1
BITMAP
1c00
2600
0000
1e00
6100
4080
80c0
8040
8040
8040
8040
4080
6100
1e00
ENDCHAR
STARTCHAR Ohungarumlaut
ENCODING 213
SWIDTH 614 0
DWIDTH 12 0
BBX 10 14 1 1
BITMAP
1a00
1400
0000
1e00
6100
4080
80c0
8040
8040
8040
8040
4080
6100
1e00
ENDCHAR
STARTCHAR Odieresis
ENCODING 214
SWIDTH 614 0
DWIDTH 12 0
BBX 10 14 1 1
BITMAP
1400
1400
0000
1e00
6100
4080
80c0
8040
8040
8040
8040
4080
6100
1e00
ENDCHAR
STARTCHAR multiply
ENCODING 215
SWIDTH 614 0
DWIDTH 12 0
BBX 7 7 2 3
BITMAP
c2
4e
38
38
6c
c6
42
ENDCHAR
STARTCHAR Rcaron
ENCODING 216
SWIDTH 614 0
DWIDTH 12 0
BBX 10 15 1 1
BITMAP
2200
3600
1c00
0000
fe00
4100
4100
4100
4300
7e00
4400
4200
4200
4100
f1c0
ENDCHAR
STARTCHAR Uring
ENCODING 217
SWIDTH 614 0
DWIDTH 12 0
BBX 11 15 0 1
BITMAP
0600
0a00
0e00
0000
f9e0
2040
2040
2040
2040
2040
2040
2040
2040
30c0
1f00
ENDCHAR
STARTCHAR Uacute
ENCODING 218
SWIDTH 614 0
DWIDTH 12 0
BBX 11 14 0 1
BITMAP
0600
0400
0000
f9e0
2040
2040
2040
2040
2040
2040
2040
2040
30c0
1f00
ENDCHAR
STARTCHAR Uhungarumlaut
ENCODING 219
SWIDTH 614 0
DWIDTH 12 0
BBX 11 14 0 1
BITMAP
0d00
0a00
0000
f9e0
2040
2040
2040
2040
2040
2040
2040
2040
30c0
1f00
ENDCHAR
STARTCHAR Udieresis
ENCODING 220
SWIDTH 614 0
DWIDTH 12 0
BBX 11 14 0 1
BITMAP
0a00
0a00
0000
f9e0
2040
2040
2040
2040
2040
2040
2040
2040
30c0
1f00
ENDCHAR
STARTCHAR Yacute
ENCODING 221
SWIDTH 614 0
DWIDTH 12 0
BBX 11 14 0 1
BITMAP
0600
0400
0000
f1e0
2080
3080
1100
1b00
0a00
0400
0400
0400
0400
1f00
ENDCHAR
STARTCHAR Tcedilla
ENCODING 222
SWIDTH 614 0
DWIDTH 12 0
BBX 10 14 1 -2
BITMAP
ff80
8880
8880
8880
88c0
0800
0800
0800
0800
0800
3e00
0c00
0400
1c00
ENDCHAR
STARTCHAR germandbls
ENCODING 223
SWIDTH 614 0
DWIDTH 12 0
BBX 9 12 1 1
BITMAP
1c00
3200
2200
2200
2600
2c00
2300
2080
2080
2080
2100
ee00
ENDCHAR
STARTCHAR racute
ENCODING 224
SWIDTH 614 0
DWIDTH 12 0
BBX 10 12 1 1
BITMAP
0c00
0800
0000
0000
73c0
1c00
1000
1000
1000
1000
1000
fe00
ENDCHAR
STARTCHAR aacute
ENCODING 225
SWIDTH 614 0
DWIDTH 12 0
BBX 9 12 1 1
BITMAP
0c00
0800
0000
0000
3e00
0100
0100
3f00
c100
8100
c300
7d80
ENDCHAR
STARTCHAR acircumflex
ENCODING 226
SWIDTH 614 0
DWIDTH 12 0
BBX 9 12 1 1
BITMAP
1c00
3600
0000
0000
3e00
0100
0100
3f00
c100
8100
c300
7d80
ENDCHAR
STARTCHAR abreve
ENCODING 227
SWIDTH 614 0
DWIDTH 12 0
BBX 9 12 1 1
BITMAP
2100
1e00
0000
0000
3e00
0100
0100
3f00
c100
8100
c300
7d80
ENDCHAR
STARTCHAR adieresis
ENCODING 228
SWIDTH 614 0
DWIDTH 12 0
BBX 9 12 1 1
BITMAP
1400
1400
0000
0000
3e00
0100
0100
3f00
c100
8100
c300
7d80
ENDCHAR
STARTCHAR lacute
ENCODING 229
SWIDTH 614 0
DWIDTH 12 0
BBX 7 14 2 1
BITMAP
18
10
f0
90
10
10
10
10
10
10
10
10
10
fe
ENDCHAR
STARTCHAR cacute
ENCODING 230
SWIDTH 614 0
DWIDTH 12 0
BBX 9 12 1 1
BITMAP
0c00
0800
0000
0000
3f80
6180
8080
8000
8000
c000
6180
3e00
ENDCHAR
STARTCHAR ccedilla
ENCODING 231
SWIDTH 614 0
DWIDTH 12 0
BBX 9 11 1 -2
BITMAP
3e80
6180
8080
8000
8000
c000
6180
3e00
0800
0400
0c00
ENDCHAR
STARTCHAR ccaron
ENCODING 232
SWIDTH 614 0
DWIDTH 12 0
BBX 9 12 1 1
BITMAP
1b00
0e00
0000
0000
3f80
6180
8080
8000
8000
c000
6180
3e00
ENDCHAR
STARTCHAR eacute
ENCODING 233
SWIDTH 614 0
DWIDTH 12 0
BBX 10 12 1 1
BITMAP
0c00
0800
0000
0000
3e00
4180
8080
ff80
8000
c000
6080
1f00
ENDCHAR
STARTCHAR eogonek
ENCODING 234
SWIDTH 614 0
DWIDTH 12 0
BBX 10 10 1 -1
BITMAP
1f00
6180
8080
ff80
8000
4000
6080
1f00
0400
0600
ENDCHAR
STARTCHAR edieresis
ENCODING 235
SWIDTH 614 0
DWIDTH 12 0
BBX 10 12 1 1
BITMAP
1400
1400
0000
0000
3e00
4180
8080
ff80
8000
c000
6080
1f00
ENDCHAR
STARTCHAR ecaron
ENCODING 236
SWIDTH 614 0
DWIDTH 12 0
BBX 10 12 1 1
BITMAP
3600
1c00
0000
0000
3e00
4180
8080
ff80
8000
c000
6080
1f00
ENDCHAR
STARTCHAR iacute
ENCODING 237
SWIDTH 614 0
DWIDTH 12 0
BBX 7 12 2 1
BITMAP
18
10
00
00
f0
10
10
10
10
10
10
fe
ENDCHAR
STARTCHAR icircumflex
ENCODING 238
SWIDTH 614 0
DWIDTH 12 0
BBX 7 12 2 1
BITMAP
38
6c
00
00
f0
10
10
10
10
10
10
fe
ENDCHAR
STARTCHAR dcaron
ENCODING 239
SWIDTH 614 0
DWIDTH 12 0
BBX 12 12 1 1
BITMAP
0360
0140
0100
0100
3d00
4300
8100
8100
8100
8100
4300
3dc0
ENDCHAR
STARTCHAR dbar
ENCODING 240
SWIDTH 614 0
DWIDTH 12 0
BBX 10 12 1 1
BITMAP
0300
0100
1fc0
0100
3d00
4300
8100
8100
8100
8100
4300
3dc0
ENDCHAR
STARTCHAR nacute
ENCODING 241
SWIDTH 614 0
DWIDTH 12 0
BBX 10 12 1 1
BITMAP
0c00
0800
0000
0000
de00
6100
4100
4100
4100
4100
4100
f3c0
ENDCHAR
STARTCHAR ncaron
ENCODING 242
SWIDTH 614 0
DWIDTH 12 0
BBX 10 12 1 1
BITMAP
3600
1c00
0000
0000
de00
6100
4100
4100
4100
4100
4100
f3c0
ENDCHAR
STARTCHAR oacute
ENCODING 243
SWIDTH 614 0
DWIDTH 12 0
BBX 9 12 1 1
BITMAP
0c00
0800
0000
0000
3e00
4100
8080
8080
8080
c080
6100
3e00
ENDCHAR
STARTCHAR ocircumflex
ENCODING 244
SWIDTH 614 0
DWIDTH 12 0
BBX 9 12 1 1
BITMAP
1c00
3600
0000
0000
3e00
4100
8080
8080
8080
c080
6100
3e00
ENDCHAR
STARTCHAR ohungarumlaut
ENCODING 245
SWIDTH 614 0
DWIDTH 12 0
BBX 9 12 1 1
BITMAP
1a00
1400
0000
0000
3e00
4100
8080
8080
8080
c080
6100
3e00
ENDCHAR
STARTCHAR odieresis
ENCODING 246
SWIDTH 614 0
DWIDTH 12 0
BBX 9 12 1 1
BITMAP
1400
1400
0000
0000
3e00
4100
8080
8080
8080
c080
6100
3e00
ENDCHAR
STARTCHAR divide
ENCODING 247
SWIDTH 614 0
DWIDTH 12 0
BBX 9 9 1 2
BITMAP
1800
0800
0000
0000
ff80
0000
0000
0800
0800
ENDCHAR
STARTCHAR rcaron
ENCODING 248
SWIDTH 614 0
DWIDTH 12 0
BBX 10 12 1 1
BITMAP
3600
1c00
0000
0000
73c0
1c00
1000
1000
1000
1000
1000
fe00
ENDCHAR
STARTCHAR uring
ENCODING 249
SWIDTH 614 0
DWIDTH 12 0
BBX 10 12 1 1
BITMAP
1c00
1400
0c00
0000
c700
4100
4100
4100
4100
4100
6300
3dc0
ENDCHAR
STARTCHAR uacute
ENCODING 250
SWIDTH 614 0
DWIDTH 12 0
BBX 10 12 1 1
BITMAP
0c00
0800
0000
0000
c700
4100
4100
4100
4100
4100
6300
3dc0
ENDCHAR
STARTCHAR uhungarumlaut
ENCODING 251
SWIDTH 614 0
DWIDTH 12 0
BBX 10 12 1 1
BITMAP
1a00
1400
0000
0000
c700
4100
4100
4100
4100
4100
6300
3dc0
ENDCHAR
STARTCHAR udieresis
ENCODING 252
SWIDTH 614 0
DWIDTH 12 0
BBX 10 12 1 1
BITMAP
1400
1400
0000
0000
c700
4100
4100
4100
4100
4100
6300
3dc0
ENDCHAR
STARTCHAR yacute
ENCODING 253
SWIDTH 614 0
DWIDTH 12 0
BBX 11 15 0 -2
BITMAP
0600
0400
0000
0000
f0e0
6040
3080
1080
1900
0a00
0600
0400
0c00
0800
fc00
ENDCHAR
STARTCHAR tcedilla
ENCODING 254
SWIDTH 614 0
DWIDTH 12 0
BBX 8 14 2 -2
BITMAP
40
40
40
fe
40
40
40
40
40
61
3e
0c
0c
3c
ENDCHAR
STARTCHAR dotaccent
ENCODING 255
SWIDTH 614 0
DWIDTH 12 0
BBX 1 2 5 11
BITMAP
80
80
ENDCHAR
ENDFONT
